<?xml version="1.0" encoding="utf-8"?>
<!-- Generator: Adobe Illustrator 25.3.1, SVG Export Plug-In . SVG Version: 6.00 Build 0)  -->
<svg version="1.1" id="Calque_1" focusable="false" xmlns="http://www.w3.org/2000/svg" xmlns:xlink="http://www.w3.org/1999/xlink"
	 x="0px" y="0px" viewBox="0 0 576 512" style="enable-background:new 0 0 576 512;" xml:space="preserve">
<path d="M298.7,205L458,261.9V494c0,9.4-7.6,17-17,17h-68c-9.4,0-17-7.6-17-17V375H186v119c0,9.4-7.6,17-17,17h-68
	c-9.4,0-17-7.6-17-17V266.7c-39.5-14.1-68-51.5-68-95.7c0-18.8,15.2-34,34-34s34,15.2,34,34c0,18.8,15.2,34,34,34H298.7z M560,86v34
	c0,37.6-30.4,68-68,68h-34v37.8l-136-48.6V18c0-15.1,18.3-22.7,29-12l29,29h57c11.6,0,25.2,8.4,30.4,18.8L475,69h68
	C552.4,69,560,76.6,560,86z M441,86c0-9.4-7.6-17-17-17s-17,7.6-17,17s7.6,17,17,17S441,95.4,441,86z"/>
</svg>
